<svg id="Capa_1" enable-background="new 0 0 512.004 512.004" height="512" viewBox="0 0 512.004 512.004" width="512" xmlns="http://www.w3.org/2000/svg"><g><path d="m475.684 19.212h-439.365c-20.026 0-36.319 16.293-36.319 36.319v297.995c0 20.026 16.293 36.319 36.319 36.319h165.64v21.777c0 9.138-4.397 17.747-11.478 22.47l-18.745 12.504h-14.903c-9.649 0-17.499 7.85-17.499 17.499v11.197c0 9.649 7.85 17.499 17.499 17.499h198.337c9.649 0 17.499-7.85 17.499-17.499v-11.197c0-9.649-7.85-17.499-17.499-17.499h-14.903l-18.745-12.504c-7.08-4.723-11.479-13.332-11.479-22.47v-21.777h165.64c20.027 0 36.32-16.293 36.32-36.319v-297.995c.001-20.026-16.292-36.319-36.319-36.319zm-120.514 442.385c1.378 0 2.499 1.121 2.499 2.499v11.197c0 1.378-1.121 2.499-2.499 2.499h-198.336c-1.378 0-2.499-1.121-2.499-2.499v-11.197c0-1.378 1.121-2.499 2.499-2.499zm-41.972-15.026.038.025h-114.468l.038-.025c11.367-7.582 18.153-20.646 18.153-34.948v-21.777h78.085v21.777c0 14.301 6.787 27.366 18.154 34.948zm183.806-93.045c0 11.756-9.564 21.319-21.32 21.319-11.908 0-427.915 0-439.364 0-11.756 0-21.319-9.563-21.319-21.319v-297.995c0-11.756 9.563-21.319 21.319-21.319h439.364c11.756 0 21.32 9.563 21.32 21.319z"/><path d="m469.161 50.407c-17.637 0-408.642 0-426.318 0-6.422 0-11.646 5.225-11.646 11.646v284.949c0 6.422 5.225 11.646 11.646 11.646h426.318c6.422 0 11.646-5.225 11.646-11.646v-124.974c0-4.143-3.357-7.5-7.5-7.5s-7.5 3.357-7.5 7.5v121.621h-419.611v-241.153h419.611v84.532c0 4.143 3.357 7.5 7.5 7.5s7.5-3.357 7.5-7.5c0-5.412 0-118.923 0-124.975.001-6.421-5.224-11.646-11.646-11.646zm-392.931 37.089h-30.034v-22.089h30.034zm389.578 0h-374.578v-22.089h374.577v22.089z"/><path d="m158.46 120.953c-8.43-8.43-22.073-8.432-30.504-.001l-7.761 7.761-.051-.051c-8.431-8.431-22.074-8.432-30.505-.001-8.409 8.409-8.409 22.094 0 30.505l15.303 15.302c8.428 8.43 22.075 8.432 30.504.001l23.014-23.013c8.409-8.41 8.409-22.095 0-30.503zm-10.606 19.897-23.014 23.013c-2.568 2.568-6.724 2.566-9.29 0 0 0 0 0 0-.001l-15.303-15.302c-2.562-2.562-2.562-6.73 0-9.291 2.564-2.567 6.723-2.571 9.291 0l5.354 5.354c2.93 2.928 7.678 2.928 10.605 0l13.064-13.063c2.567-2.567 6.724-2.568 9.29.001 2.563 2.559 2.563 6.727.003 9.289z"/><path d="m158.46 194.975c-8.43-8.43-22.073-8.432-30.504-.001l-7.761 7.761-.051-.051c-8.431-8.431-22.074-8.432-30.505-.001-8.409 8.409-8.409 22.094 0 30.505l15.303 15.302c8.428 8.43 22.075 8.432 30.504.001l23.014-23.013c8.409-8.411 8.409-22.095 0-30.503zm-10.606 19.896-23.014 23.013c-2.568 2.568-6.724 2.566-9.29 0 0 0 0 0 0-.001l-15.303-15.302c-2.562-2.562-2.562-6.73 0-9.291 2.564-2.567 6.723-2.571 9.291 0l5.354 5.354c2.93 2.928 7.678 2.928 10.605 0l13.064-13.063c2.567-2.567 6.724-2.568 9.29.001 2.563 2.56 2.563 6.728.003 9.289z"/><path d="m127.956 268.995-7.761 7.761-.051-.051c-8.431-8.431-22.074-8.432-30.505-.001-8.409 8.409-8.409 22.094 0 30.505l15.303 15.302c8.429 8.431 22.075 8.431 30.505.001l23.013-23.013c8.409-8.41 8.409-22.094 0-30.503-8.431-8.43-22.073-8.432-30.504-.001zm19.897 19.897-23.013 23.014c-2.568 2.568-6.724 2.566-9.29 0 0 0 0 0 0-.001l-15.303-15.302c-2.562-2.562-2.562-6.73 0-9.291 2.564-2.567 6.723-2.571 9.291 0l5.354 5.354c2.93 2.928 7.678 2.928 10.605 0l13.064-13.063c2.567-2.567 6.724-2.568 9.29.001 2.57 2.565 2.57 6.721.002 9.288z"/><path d="m425.88 216.278c0-9.289-7.558-16.847-16.847-16.847h-206.908c-9.289 0-16.847 7.558-16.847 16.847v10.906c0 9.289 7.558 16.847 16.847 16.847h206.908c9.289 0 16.847-7.558 16.847-16.847zm-15 10.907c0 1.019-.828 1.847-1.847 1.847h-206.908c-1.019 0-1.847-.828-1.847-1.847v-10.906c0-1.019.828-1.847 1.847-1.847h206.908c1.019 0 1.847.828 1.847 1.847z"/><path d="m409.033 273.453h-206.908c-9.289 0-16.847 7.558-16.847 16.847v10.906c0 9.289 7.558 16.847 16.847 16.847h206.908c9.289 0 16.847-7.558 16.847-16.847v-10.906c0-9.289-7.558-16.847-16.847-16.847zm1.847 27.753c0 1.019-.828 1.847-1.847 1.847h-206.908c-1.019 0-1.847-.828-1.847-1.847v-10.906c0-1.019.828-1.847 1.847-1.847h206.908c1.019 0 1.847.828 1.847 1.847z"/><path d="m425.88 142.257c0-9.289-7.558-16.847-16.847-16.847h-85.954c-4.143 0-7.5 3.357-7.5 7.5s3.357 7.5 7.5 7.5h85.954c1.019 0 1.847.828 1.847 1.847v10.907c0 1.018-.828 1.846-1.847 1.846h-206.908c-1.019 0-1.847-.828-1.847-1.846v-10.907c0-1.019.828-1.847 1.847-1.847h85.954c4.143 0 7.5-3.357 7.5-7.5s-3.357-7.5-7.5-7.5h-85.954c-9.289 0-16.847 7.558-16.847 16.847v10.907c0 9.289 7.558 16.846 16.847 16.846h206.908c9.289 0 16.847-7.557 16.847-16.846z"/></g></svg>